<?xml version="1.0" encoding="UTF-8"?>
<svg xmlns="http://www.w3.org/2000/svg" xmlns:xlink="http://www.w3.org/1999/xlink" viewBox="0 0 1507.68 905.95">
  <defs>
    <style>
      .cls-1 {
        fill: #dae9de;
      }

      .cls-2, .cls-3, .cls-4, .cls-5, .cls-6, .cls-7 {
        fill: #68597e;
      }

      .cls-3 {
        opacity: .25;
      }

      .cls-3, .cls-8, .cls-4, .cls-9, .cls-10, .cls-11, .cls-12, .cls-13, .cls-6, .cls-14, .cls-15, .cls-16, .cls-17 {
        mix-blend-mode: multiply;
      }

      .cls-8 {
        fill: #d1d3d4;
        opacity: .62;
      }

      .cls-18 {
        opacity: .3;
      }

      .cls-18, .cls-19, .cls-20, .cls-21, .cls-5, .cls-22, .cls-23, .cls-7 {
        mix-blend-mode: screen;
      }

      .cls-18, .cls-20, .cls-10, .cls-11, .cls-13, .cls-22, .cls-24 {
        fill: #874648;
      }

      .cls-19 {
        opacity: .51;
      }

      .cls-19, .cls-23, .cls-25 {
        fill: #9ad1e5;
      }

      .cls-20 {
        opacity: .23;
      }

      .cls-26 {
        isolation: isolate;
      }

      .cls-9 {
        stroke: #874648;
      }

      .cls-9, .cls-13, .cls-14, .cls-15, .cls-17 {
        opacity: .42;
      }

      .cls-9, .cls-27, .cls-28, .cls-29, .cls-30, .cls-31 {
        fill: none;
      }

      .cls-9, .cls-27, .cls-28, .cls-30 {
        stroke-miterlimit: 10;
      }

      .cls-10 {
        opacity: .33;
      }

      .cls-21 {
        opacity: .2;
      }

      .cls-21, .cls-32, .cls-15 {
        fill: #442329;
      }

      .cls-11 {
        opacity: .5;
      }

      .cls-12, .cls-33, .cls-17 {
        fill: #d0edfa;
      }

      .cls-34 {
        filter: url(#drop-shadow-1);
      }

      .cls-5, .cls-22 {
        opacity: .1;
      }

      .cls-35 {
        fill: #addab9;
      }

      .cls-27, .cls-28 {
        stroke: #68597e;
      }

      .cls-27, .cls-31 {
        stroke-linecap: round;
        stroke-width: 3px;
      }

      .cls-6 {
        opacity: .17;
      }

      .cls-36 {
        fill: #323230;
      }

      .cls-28 {
        stroke-dasharray: 0 0 0 0 8.45 8.45 20 5;
      }

      .cls-37 {
        fill: #f1d2b6;
      }

      .cls-14, .cls-38 {
        fill: #f7ccad;
      }

      .cls-39 {
        clip-path: url(#clippath);
      }

      .cls-23 {
        opacity: .36;
      }

      .cls-40 {
        fill: #f7576f;
      }

      .cls-41 {
        fill: #abe3bc;
      }

      .cls-7 {
        opacity: .22;
      }

      .cls-42 {
        fill: #e6e7e8;
      }

      .cls-30 {
        stroke-width: 4px;
      }

      .cls-30, .cls-31 {
        stroke: #fff;
      }

      .cls-43 {
        fill: #eeeae5;
      }

      .cls-31 {
        stroke-linejoin: round;
      }
    </style>
    <filter id="drop-shadow-1" filterUnits="userSpaceOnUse">
      <feOffset dx="4" dy="3"/>
      <feGaussianBlur result="blur" stdDeviation="0"/>
      <feFlood flood-color="#000" flood-opacity=".2"/>
      <feComposite in2="blur" operator="in"/>
      <feComposite in="SourceGraphic"/>
    </filter>
    <clipPath id="clippath">
      <path class="cls-29" d="M1170.03,719.2l29.84-60.53h68.21s-30.41,60.87-30.41,60.87c-1,2.04-3.67,3.69-5.96,3.69l-59.36,.81c-1.94,0-2.98-1.19-2.64-2.8-.15-.59-.06-1.29,.31-2.04Z"/>
    </clipPath>
  </defs>
  <g class="cls-26">
    <g id="Layer_2" data-name="Layer 2">
      <g id="Layer_1-2" data-name="Layer 1">
        <path class="cls-6" d="M0,765.07c0-14.82,43.75-28.01,111.68-36.43-14.51-3.67-22.24-7.52-22.24-11.48,0-25.43,317.48-46.05,709.12-46.05s709.12,20.62,709.12,46.05c0,13.19-85.4,25.08-222.24,33.48,14.92,4.28,22.9,8.8,22.9,13.46,0,2.95-3.2,5.84-9.32,8.65,124.64,8.39,205.46,21.86,205.46,37.04,0,13.19-60.97,25.08-158.67,33.48,10.65,4.28,16.35,8.8,16.35,13.46,0,27.18-193.25,49.21-431.64,49.21s-431.64-22.03-431.64-49.21c0-8.92,20.8-17.28,57.16-24.49-33.86-5.5-55.64-11.71-62.1-18.31-5.02,26.29-112.73,47.3-244.89,47.3S3.96,839.19,3.96,812.01c0-8.92,11.81-17.28,32.46-24.49C13.22,780.88,0,773.23,0,765.07Z"/>
        <g>
          <path class="cls-37" d="M917.26,667.86s-569.96,78.17-684.23-172.79C118.77,244.11,282.37-8.97,540.61,.24c263.36,9.4,256.8,284.07,524.25,279.89,248.66-3.89,239.73,373.21-147.6,387.72Z"/>
          <path class="cls-37" d="M1197.25,43.98c47.29,14.68,89.05,38.21,115.56,67.76,57.66,64.27,86.37,175.52,75.08,260.79-7.78,58.74-57.25,144.01-121.45-12.93-43.02-105.17-151.09-129.31-217.7-133.78-8.58-.17-26.36-.27-45.03-.43-6.7,.35-10.48,.78-10.48,.78,0,0-.05-.3-.12-.88-23.51-.24-45.96-.62-50.86-1.44-51.98-8.65-60.17-74.15-37.61-112.57,52-88.57,186.29-100.3,292.61-67.3Z"/>
        </g>
        <g>
          <g>
            <g>
              <polygon class="cls-2" points="511.4 718.45 755.38 684.49 755.66 661.87 514.35 659.67 511.4 718.45"/>
              <g>
                <polygon class="cls-2" points="755.66 661.87 684.07 707.59 687.14 728.45 755.38 684.49 755.66 661.87"/>
                <polygon class="cls-32" points="755.66 661.87 687.23 707.87 687.14 728.45 755.38 684.49 755.66 661.87"/>
                <polygon class="cls-2" points="443.84 708.12 514.35 659.67 754.74 661.86 684.07 707.59 443.84 708.12"/>
                <polygon class="cls-2" points="443.84 708.12 514.35 659.43 754.74 661.86 687.54 707.44 443.84 708.12"/>
                <polygon class="cls-32" points="443.62 725.81 687.14 728.45 687.4 707.63 443.84 708.12 443.62 725.81"/>
                <polygon class="cls-7" points="443.84 708.12 514.35 659.43 754.74 661.86 687.54 707.44 443.84 708.12"/>
                <polygon class="cls-13" points="755.66 661.87 687.23 707.87 687.14 728.45 755.38 684.49 755.66 661.87"/>
              </g>
            </g>
            <g>
              <g>
                <polygon class="cls-2" points="567.91 687.89 670.88 687.81 654.4 524.5 551.44 524.58 567.91 687.89"/>
                <polygon class="cls-6" points="567.91 687.89 670.88 687.81 654.4 524.5 551.44 524.58 567.91 687.89"/>
                <polygon class="cls-2" points="558.96 687.9 661.93 687.82 645.45 524.51 542.49 524.59 558.96 687.9"/>
                <polygon class="cls-3" points="658.42 571.24 662.16 605.47 550.72 605.56 546.63 567.3 658.42 571.24"/>
              </g>
              <g>
                <g>
                  <path class="cls-2" d="M432.86,578.87l360.78-.28c7.73,0,15.1-6.24,16.45-13.93l57.29-482.53c-.05-12.55-11.25-24.59-26.7-26.26l-345.63,12.63c-7.73,0-15.1,6.24-16.45,13.93l-76.8,469.92c-1.66,13.67,14.22,26.35,31.07,26.53Z"/>
                  <path class="cls-2" d="M414.32,561.85l360.78-.28c7.73,0,15.1-6.16,16.45-13.74l57.24-479.16c1.35-7.58-3.83-13.72-11.56-13.72l-360.78,.28c-7.73,0-15.1,6.16-16.45,13.74l-57.24,479.16c-1.35,7.58,3.83,13.72,11.56,13.72Z"/>
                  <path class="cls-36" d="M414.32,561.85l360.78-.28c7.73,0,15.1-6.16,16.45-13.74l57.24-479.16c1.35-7.58-3.83-13.72-11.56-13.72l-360.78,.28c-7.73,0-15.1,6.16-16.45,13.74l-57.24,479.16c-1.35,7.58,3.83,13.72,11.56,13.72Z"/>
                  <path class="cls-33" d="M768.97,516.86l52.61-427.93c.59-4.96-3.23-9.28-8.2-9.27l-322.39,.25c-4.28,0-7.92,3.25-8.43,7.52l-52.61,427.93c-.59,4.96,3.23,9.28,8.2,9.27l322.39-.25c4.28,0,7.92-3.25,8.43-7.52Z"/>
                  <g>
                    <path class="cls-40" d="M475.34,508.71h249.13c7.8,0,14.93-6.31,15.92-14.1h0c.99-7.79-4.53-14.1-12.33-14.1h-249.13c-7.8,0-14.93,6.31-15.92,14.1h0c-.99,7.79,4.53,14.1,12.33,14.1Z"/>
                    <g>
                      <path class="cls-40" d="M515.09,174.92h255.18c6.13,0,11.73-5.09,12.51-11.37l6.19-49.86c.78-6.28-3.56-11.37-9.69-11.37h-255.18c-6.13,0-11.73,5.09-12.51,11.37l-6.19,49.86c-.78,6.28,3.56,11.37,9.69,11.37Z"/>
                      <g class="cls-34">
                        <g>
                          <path class="cls-41" d="M580.59,423.04c1.31-.97,2.68-2.2,4.44-3.46,.08,.15,.16,.29,.23,.45,5.07,11.09,11.26,12.46,24.16,12.95,6.22,.23,7.81-3.74,8.03-4.38,.3-.75,3.85-10.16-6.78-17.64-2.1-1.48-4.04-2.55-5.96-3.29,2.68-1.58,6-2.78,9.78-2.64,10.32,.39,12.22,5.43,17.59,9.21,5.37,3.78,13.01,7,10.85,18.32-.81,4.22-4.53,6.48-9.37,7.62l-49.86-1.88c-4.82-1.4-7.48-3.69-4.6-7.5,0,0-5.32-2.15-3.45-6.32,0,0,1.59,1.04,4.93-1.44Z"/>
                          <path class="cls-41" d="M564.57,409.41c.5-1.42,2.16-1.88,2.44-2.63,.54-1.44-1.2-1.98-.28-4.37,.92-2.39,4.29-2.31,4.89-.06,.59,2.25,1.63,3.88,12.24,4.75,8.51,.7,13.31-1.89,20.31,.9,1.72,.68,3.58,1.69,5.66,3.15,10.52,7.41,6.56,16.8,6.56,16.8,0,0-1.06,4-7.17,3.77-13.34-.5-18.78-2.05-23.59-12.55,0-.01-.01-.02-.02-.03-4.21-9.21-13.12-9.01-14.1-8.84-1.56,.26-3.44,2.49-5.43,1.98-1.99-.51-1.84-1.9-1.5-2.86Z"/>
                          <polygon class="cls-41" points="633.88 446.32 633.48 448.41 581.72 446.46 582.12 444.37 577.27 439.23 640.6 441.62 633.88 446.32"/>
                        </g>
                        <g>
                          <path class="cls-2" d="M672.59,419.99c.4-1.26,1.15-2.33,1.97-3.13,.84-.8,1.76-1.41,2.73-1.64,.89-.16,1.62-.31,2.35-.4,.71-.1,1.34-.18,1.88-.2,.55-.04,1.01-.08,1.38-.08,.75-.02,1.14-.03,1.14-.03,0,0-.4,.07-1.15,.19-.38,.05-.84,.15-1.38,.26-.54,.1-1.16,.25-1.85,.42-.68,.15-1.48,.41-2.28,.64-.71,.26-1.48,.83-2.11,1.55-.63,.73-1.15,1.64-1.36,2.61-.23,.97-.16,1.99,.22,2.94,.19,.47,.45,.94,.74,1.35l.26,.35,.26,.3c.18,.21,.36,.42,.57,.62,.79,.81,1.72,1.54,2.75,2.21,1.03,.66,2.16,1.26,3.36,1.8,1.19,.55,2.45,1.05,3.76,1.5,2.63,.9,5.45,1.61,8.36,2.21,2.91,.59,5.95,1.01,8.99,1.27,3.01,.28,6.11,.16,9.21-.12,3.08-.27,6.14-.7,9.09-1.32,2.94-.62,5.78-1.35,8.41-2.32,2.63-.98,5.05-2.1,7.08-3.58,.98-.72,1.92-1.5,2.64-2.33,.73-.83,1.25-1.73,1.38-2.59,.13-.86-.12-1.64-.53-2.26-.41-.62-.93-1.1-1.43-1.48-1.02-.77-1.95-1.21-2.59-1.5-.64-.28-1.01-.39-1.01-.39,0,0,.38,.07,1.07,.27,.68,.21,1.7,.51,2.85,1.19,.57,.34,1.18,.78,1.72,1.42,.53,.63,.98,1.56,.89,2.72-.08,1.16-.69,2.33-1.46,3.34-.78,1.03-1.72,1.93-2.79,2.8-2.09,1.71-4.64,3.15-7.36,4.29-2.73,1.15-5.67,2.1-8.71,2.83-3.05,.72-6.2,1.29-9.4,1.64-3.19,.32-6.47,.49-9.67,.22-3.18-.25-6.27-.75-9.27-1.38-3-.63-5.88-1.47-8.58-2.5-1.35-.52-2.65-1.08-3.89-1.71-1.23-.64-2.39-1.35-3.46-2.13-1.07-.78-2.05-1.65-2.88-2.61-.22-.23-.41-.49-.59-.75-.1-.14-.18-.24-.28-.4l-.23-.38c-.34-.58-.6-1.15-.78-1.78-.38-1.23-.38-2.63,.02-3.88Z"/>
                          <path class="cls-2" d="M734.07,423.88c.79,.66,2.17,1.37,3.27,.45,1.09-.91,.03-1.87-.81-1.92-.86-.05-.59-1.45,.27-1.4,1.54,.09,2.8,1.21,2.18,2.99-.73,2.1-2.88,2.45-4.47,1.86-3.04-1.12-4.37-4.81-6.17-7.24-1.51-2.04-7.02-4.3-9.13-.8-.49,.81-1.72,.4-1.22-.42,2.61-4.34,8.28-2.71,10.82-.45,2.16,1.93,3.02,5.04,5.27,6.93Z"/>
                          <path class="cls-2" d="M694.94,428.34c-.53-1.47,.08-3.81,1.64-4.78,1.54-.96,3.6-.96,4.17,.72,.56,1.65-1.07,3.15-2.58,3.5-.88,.2-.98-1.16-.1-1.36,1.86-.43,1.69-2.23-.09-2.04-1.34,.15-1.85,1.65-1.84,2.74,.03,2.45,3.35,2.54,5.19,2.44,4.19-.22,7.21-2.77,10.5-5.56,2.57-2.18,5.32-4.56,8.47-5.44,3.41-.96,5.64,1.4,6.99,3.97,.39,.74-.91,1.39-1.29,.66-1.32-2.51-3.34-4.19-6.51-2.97-2.39,.92-4.54,2.82-6.54,4.5-1.85,1.56-3.66,3.18-5.69,4.45-2.19,1.37-4.9,1.8-7.22,1.82-2.08,.02-4.38-.63-5.11-2.65Z"/>
                          <path class="cls-2" d="M677.33,423.92c-1.41-.98-2.61-3.16-1.94-4.96,.56-1.5,2.19-2.02,3.71-2.14,1.44-.12,3.35,.2,4.29,1.13,.96,.95,.12,2.02-1.07,2.61-.81,.4-1.28-.69-.47-1.09,1.83-.9-1.84-1.41-2.5-1.43-3.02-.07-3.19,2.21-1.94,4.03,1.62,2.35,5.43,2.06,8.3,1.56,3.13-.55,6.19-1.66,9.2-2.75,2.62-.95,5.4-1.75,8.12-2.11,2.2-.29,5.73,.18,5.6,2.76-.12,2.31-3.34,3.87-5.18,2.44-1.68-1.3,.12-3.24,2.06-2.52,.76,.29,.19,1.47-.59,1.18-.25-.24-.49-.2-.69,.1,.22,.73,1.35,.6,1.98,.36,1.64-.63,.98-2.18,.08-2.79-1.35-.92-3.91-.26-5.53,.11-2.65,.6-5.17,1.51-7.75,2.41-4.77,1.66-11.59,3.95-15.69,1.1Z"/>
                          <path class="cls-2" d="M703.08,415.07c-.51-.65,.63-1.6,1.14-.95,1.03,1.32,3.5-1.44,1.4-2.46-2.13-1.02-4.2,1.15-5.62,2.84-2.5,2.97-5.08,5.31-8.85,5.6-1.99,.15-6.36-.66-4.71-3.75,1.44-2.67,4.94-2.37,6.37-.76,.54,.61-.6,1.56-1.14,.96-.73-.82-1.72-1.05-2.88-.6-.95,.37-1.76,1.29-.92,2.05,1.62,1.46,4.73,.67,6.74-.25,3.48-1.59,4.88-6,8.45-7.41,2.1-.83,5.63,.22,4.7,3.02-.72,2.18-3.35,3.43-4.68,1.72Z"/>
                          <path class="cls-2" d="M712.12,418.62c-.8-.23-.19-1.57,.62-1.34,1.47,.42,2.75,2.35,1.46,3.98-1.03,1.3-2.83,.8-3.76,.13-1.48-1.06-1.6-3.09-.77-4.93,1.15-2.56,3.11-4.45,5.7-3.83,.82,.19,.2,1.53-.61,1.34-1.83-.43-2.83,1.05-3.73,2.66-.64,1.14-.72,2.35-.02,3.25,.43,.56,1.25,.94,2.02,.72,1.13-.31-.5-1.87-.89-1.98Z"/>
                          <path class="cls-2" d="M717.3,415.67c-.82-.15-.57-1.55,.27-1.4,.68,.12,1.04-.08,1.28-.86,.33-1.08-.2-1.86-1.03-2.29-.88-.45-1.99-.62-3.01-.7-1.45-.12-5.34,.14-4.37,2.52,.32,.78-.98,1.44-1.29,.66-1.66-4.08,4.35-4.87,6.9-4.46,2.02,.33,4.17,.95,4.26,3.33,.07,1.75-1.22,3.52-3,3.2Z"/>
                          <path class="cls-2" d="M733.19,418.73c-.41-2.57-4.5-6.84-7.34-4.39-.73,.63-1.48-.4-.76-1.03,3.85-3.34,8.89,1.54,9.46,5.09,.14,.86-1.23,1.17-1.36,.32Z"/>
                          <path class="cls-2" d="M728.48,427.77c-.75,.59-1.51-.43-.76-1.03,2-1.59,3.81,.3,2.5,2.41-2.21,3.58-8.4,2.03-10.91,.97-.76-.32-.15-1.66,.62-1.34,2.16,.91,4.75,1.33,7.27,.91,.81-.14,1.82-.62,2.07-1.54,.2-.73-.29-.78-.79-.38Z"/>
                          <path class="cls-2" d="M714.06,430.15c-2.63,1.25-4.57,.28-3.61-2.69,.29-.89,1.51-.46,1.22,.42-.58,1.81,.77,1.53,1.94,1.03,1.52-.64,2.48-2.11,3.5-3.38,1.37-1.72,2.72-3.42,4.86-3.59,2.79-.21,3.9,5.07,.24,4.39-.83-.16-.21-1.49,.61-1.34,.88,.17,0-1.1,.02-1.06-.46-.68-1.33-.7-2.14-.34-.93,.41-1.91,1.9-2.58,2.69-1.29,1.51-2.26,3.01-4.07,3.86Z"/>
                          <path class="cls-2" d="M690.43,427.92c-.83,.44-1.27-.79-.45-1.24,1.27-.68,2.77-.79,3.53,.34,.69,1.02,.14,2.52-1.01,3.24-1.61,1.01-3.85,.83-5.39,.38-1.77-.52-2.69-2.07-2.17-4.07,.23-.89,1.58-.85,1.34,.05-.76,2.91,2.71,3.22,4.81,2.81,.65-.13,1.55-.61,1.31-1.38-.26-.81-1.36-.46-1.97-.13Z"/>
                          <path class="cls-2" d="M697.21,413.28c.4-3.59-10.97-1.91-11.65,2.07-.16,.9-1.5,.85-1.34-.05,.6-3.47,5.07-4.74,7.79-5.12,2.41-.33,6.93-.24,6.55,3.15-.1,.9-1.44,.84-1.34-.05Z"/>
                          <path class="cls-2" d="M707.16,433.96c-1.04-.11-2.59-.32-3.12-1.29-.61-1.14,.74-2.08,1.71-2.55,.84-.41,1.29,.83,.45,1.23-.99,.48-1.22,.51-.29,.87,.92,.36,1.98,.41,3,.42,1.81,.03,5.26-.22,6.26-2.41,.4-.86,1.62-.44,1.22,.42-1.57,3.41-6.5,3.59-9.24,3.3Z"/>
                          <path class="cls-2" d="M703.41,438.98s.06,0,.17,0c.1,0,.15,0,.15,0h0c2.57,.1,20.38,.44,33.15-8.15,0,0-7.29,19.2-13.84,21.41l-43.66-1.65s0,0,0,0c-5.63-2.65-5.53-22.16-5.53-22.16,9.32,9.42,27.01,10.43,29.58,10.53h0Z"/>
                          <path class="cls-2" d="M747.15,405.15l-2.21,11.59,1.26,.05,2.21-11.59,.63,.02-2.21,11.59h.34s.49,.03,.49,.03h.34s2.21-11.58,2.21-11.58l.62,.02-2.21,11.59,1.26,.05,2.21-11.59,.55,.02-2.07,13.49c-.13,.69-.83,2.2-1.43,3.07-.39,.56-1.15,1.37-1.9,2.01-.68,4.22-2.99,18.7-3.46,21.68-.65,4.11-.69,2.19-1.6,4.9-.3,.9-.84,1.95-1.54,1.94-.7-.01-.88-1.11-.85-2.03,.11-2.73-.64-.84,.28-4.95,.67-2.97,3.86-17.41,4.8-21.62-.5-.69-.95-1.55-1.12-2.13-.27-.9-.38-2.45-.25-3.14l3.07-13.45,.55,.02Z"/>
                        </g>
                        <g>
                          <path class="cls-40" d="M549.85,253.67c1.87,.07,5.08-.87,9.56-2.81,3.38-1.46,5.22-2.46,6.24-3.22l-.28,1.47h-.13s0,.09-.01,.13c-.11,.56-.27,1.4-6.85,4.01-4.19,1.67-7.19,2.48-8.9,2.41-1.56-.06-4.15-1.08-7.67-3.04-5.58-3.09-5.42-3.89-5.31-4.48,0-.05,.02-.09,.04-.14h-.13s.28-1.49,.28-1.49c.72,.82,2.18,1.94,5.02,3.65,3.75,2.27,6.42,3.41,8.16,3.47Z"/>
                          <path class="cls-40" d="M545.54,230.04c3.7,2.55,6.34,3.82,8.08,3.88,1.87,.07,5.11-1.01,9.64-3.22,3.42-1.67,5.29-2.8,6.33-3.67l-3.6,18.87s-.23,.72-6.82,3.57c-4.3,1.86-7.34,2.77-9.03,2.71-1.06-.04-3.24-.65-7.68-3.33-5.5-3.33-5.43-4.04-5.45-4.07l3.57-18.71s.06-.03,.09-.06c.72,.92,2.15,2.15,4.87,4.03Z"/>
                          <path class="cls-40" d="M570.01,224.17s.02-.09,.03-.13c.27-1.42-.62-2.73-5.95-5.19-.05-.02-5.3-2.44-7.06-2.51-2.03-.08-7.84,1.86-8.09,1.94-6.01,2.01-7.38,3.28-7.65,4.68,0,.04-.02,.09-.02,.13-.12,.74,0,1.86,5.11,5.52,3.43,2.46,5.96,3.73,7.53,3.79,1.71,.06,4.76-1,9.05-3.17,6.33-3.2,6.89-4.34,7.05-5.06Zm-2.07-.21s-.05,.08-.09,.13c-.87,1.22-10.89,6.55-13.58,6.45-2.36-.09-10.43-6.1-10.84-7.37-.01-.05-.04-.1-.04-.13,.29-1.54,11.48-4.9,13.28-4.83,1.35,.05,11.56,4.22,11.27,5.75Z"/>
                          <path class="cls-40" d="M555.42,222.79c-1.38,.21-2.36,.54-3.04,.72-.53,.14-.86,.16-1.01-.04-.08-.1-.12-.23-.12-.45,.02-1.28,2.04-2.62,4.21-2.95,2.2-.33,4.2,.4,4.19,1.68-.02,1.28-1.26,.59-4.23,1.04Z"/>
                          <path class="cls-40" d="M553.16,223.91c.94,.04,1.58,.71,1.43,1.51s-1.04,1.41-1.98,1.38-1.58-.71-1.43-1.51,1.04-1.42,1.98-1.38Z"/>
                          <path class="cls-40" d="M555.51,226.14c.69,.03,1.16,.52,1.05,1.11s-.76,1.04-1.45,1.01-1.16-.52-1.05-1.11,.76-1.04,1.45-1.01Z"/>
                          <path class="cls-40" d="M561.64,223.97c-.26,.14-.57,.07-.85-.15-.23-.18-.44-.46-.59-.81-.32-.79-.2-1.64,.27-1.91,.47-.26,1.12,.17,1.44,.96,.29,.72,.21,1.46-.16,1.8-.04,.03-.06,.09-.11,.11Z"/>
                          <path class="cls-40" d="M554.95,223.67s.03-.04,.05-.06c.55-.68,4.05-.6,4.87-.28,.23,.09,.41,.27,.54,.49,.33,.57,.33,1.44,.06,1.98-.37,.75-2.2,1.33-3.04,1-.85-.32-2.84-2.37-2.47-3.12Z"/>
                          <path class="cls-40" d="M537.18,238.37l-.37,1.95c-.29,.03-.56,.04-.8,.03-.31-.01-.66-.07-1.05-.16l.37-1.95c.38,.08,.73,.14,1.05,.15,.24,0,.52,0,.81-.03Z"/>
                          <path class="cls-40" d="M531.71,216.59s-2.71-1.26-4.98-2.01l.6-3.12s.06-.03,.08-.05c.71,.89,2.1,2.1,4.75,3.93,3.61,2.49,6.19,3.73,7.89,3.79,1.82,.07,4.99-.99,9.4-3.14,3.34-1.63,5.16-2.73,6.17-3.58l-.59,3.1c-2.42,.48-5.5,1.49-6.27,1.74-4.98,1.67-7.34,2.99-8.2,4.71l-3.11,14.94c-.29,.03-.57,.05-.81,.04-.27-.01-.61-.06-1.04-.17l2.58-14.9c-.19-1.77-2.03-3.22-6.48-5.27Z"/>
                          <path class="cls-40" d="M556.04,209.61s.02-.09,.03-.13c.27-1.39-.6-2.67-5.8-5.07-.05-.02-5.17-2.38-6.88-2.45-1.98-.07-7.65,1.82-7.89,1.89-5.86,1.96-7.2,3.2-7.46,4.56,0,.04-.02,.08-.02,.13-.12,.72,0,1.81,4.99,5.39,3.34,2.4,5.82,3.64,7.34,3.7,1.67,.06,4.64-.98,8.83-3.09,6.18-3.12,6.72-4.24,6.88-4.94Zm-2.02-.21s-.05,.08-.09,.13c-.84,1.19-10.62,6.39-13.25,6.29-2.3-.09-10.18-5.95-10.58-7.19-.02-.05-.04-.1-.04-.13,.29-1.5,11.2-4.78,12.96-4.71,1.31,.05,11.28,4.11,10.99,5.61Z"/>
                          <path class="cls-40" d="M541.81,208.26c-1.34,.2-2.3,.53-2.97,.7-.51,.13-.84,.16-.99-.04-.07-.09-.12-.22-.12-.44,.02-1.25,1.99-2.55,4.1-2.88,2.15-.33,4.1,.39,4.09,1.64-.02,1.25-1.23,.58-4.12,1.01Z"/>
                          <path class="cls-40" d="M539.6,209.36c.92,.03,1.54,.69,1.39,1.47s-1.01,1.38-1.93,1.35c-.92-.03-1.54-.69-1.39-1.47s1.01-1.38,1.93-1.35Z"/>
                          <path class="cls-40" d="M541.89,211.53c.67,.03,1.13,.51,1.02,1.08s-.74,1.01-1.42,.99-1.13-.51-1.02-1.08,.74-1.01,1.42-.99Z"/>
                          <path class="cls-40" d="M547.87,209.41c-.25,.14-.56,.07-.83-.14-.22-.18-.43-.45-.57-.79-.32-.77-.2-1.6,.26-1.86,.46-.25,1.09,.16,1.4,.93,.29,.7,.2,1.43-.16,1.75-.04,.03-.06,.08-.1,.11Z"/>
                          <path class="cls-40" d="M541.34,209.12s.03-.04,.05-.06c.54-.67,3.95-.58,4.75-.28,.23,.09,.4,.26,.52,.48,.33,.55,.32,1.4,.06,1.93-.36,.73-2.15,1.29-2.97,.98-.82-.32-2.77-2.31-2.41-3.05Z"/>
                          <path class="cls-40" d="M516.92,252.43c1.87,.07,5.08-.87,9.56-2.81,3.38-1.46,5.22-2.46,6.24-3.22l-.28,1.47h-.13s0,.09-.02,.13c-.11,.56-.27,1.4-6.85,4.01-4.19,1.67-7.19,2.48-8.9,2.41-1.57-.06-4.15-1.08-7.67-3.04-5.58-3.09-5.43-3.89-5.31-4.48,0-.05,.02-.09,.04-.14h-.13s.28-1.49,.28-1.49c.72,.82,2.18,1.94,5.02,3.65,3.75,2.27,6.42,3.41,8.16,3.47Z"/>
                          <path class="cls-40" d="M520.68,232.68c1.87,.07,5.11-1.01,9.64-3.22,3.42-1.67,5.29-2.8,6.33-3.67,0,0-3.56,18.19-3.58,18.3-.08,.42-.25,1.3-6.83,4.14-4.3,1.86-7.34,2.77-9.03,2.71-1.06-.04-3.25-.65-7.68-3.33-5.5-3.33-5.31-4.38-5.41-3.98-.01-.03,3.53-18.8,3.53-18.8,.03-.02,.06-.04,.09-.06,.72,.92,2.15,2.15,4.87,4.03,3.7,2.55,6.34,3.82,8.08,3.88Z"/>
                          <path class="cls-40" d="M531.15,217.6c-.05-.02-5.3-2.44-7.06-2.51-2.03-.08-7.84,1.86-8.09,1.94-6.01,2.01-7.38,3.28-7.65,4.68,0,.04-.02,.09-.02,.13-.12,.74,0,1.86,5.11,5.52,3.43,2.46,5.96,3.73,7.53,3.79,1.71,.06,4.75-1,9.05-3.17,6.33-3.2,6.89-4.34,7.05-5.06,0-.05,.02-.09,.03-.13,.27-1.42-.62-2.73-5.95-5.19Zm-7.41-.64c1.35,.05,11.56,4.22,11.27,5.75,0,.03-.05,.08-.09,.13-.87,1.22-10.89,6.55-13.58,6.45-2.36-.09-10.43-6.1-10.84-7.37-.02-.05-.04-.1-.04-.13,.29-1.54,11.48-4.9,13.28-4.83Z"/>
                          <path class="cls-40" d="M522.48,221.54c-1.38,.21-2.36,.54-3.04,.72-.53,.14-.86,.16-1.01-.04-.08-.1-.12-.23-.12-.45,.02-1.28,2.04-2.62,4.21-2.95,2.21-.33,4.2,.4,4.19,1.68-.02,1.28-1.26,.59-4.22,1.04Z"/>
                          <path class="cls-40" d="M520.23,222.67c.94,.04,1.58,.71,1.43,1.51s-1.04,1.41-1.98,1.38-1.58-.71-1.43-1.51,1.04-1.42,1.98-1.38Z"/>
                          <path class="cls-40" d="M522.57,224.9c.69,.03,1.16,.52,1.05,1.11s-.76,1.04-1.45,1.01-1.16-.52-1.05-1.11,.76-1.04,1.45-1.01Z"/>
                          <path class="cls-40" d="M528.7,222.72c-.26,.14-.57,.07-.85-.15-.23-.18-.44-.46-.59-.81-.32-.79-.2-1.64,.27-1.91,.47-.26,1.12,.17,1.44,.96,.29,.72,.21,1.46-.16,1.8-.04,.03-.06,.09-.11,.11Z"/>
                          <path class="cls-40" d="M522,222.42s.04-.04,.05-.06c.55-.68,4.05-.6,4.87-.28,.23,.09,.41,.27,.54,.49,.33,.57,.33,1.44,.06,1.98-.37,.75-2.2,1.33-3.04,1-.84-.32-2.84-2.37-2.47-3.12Z"/>
                        </g>
                        <g>
                          <path class="cls-41" d="M607.09,250.94c.65,.62,2.82,2.26,6.71,2.6,3.71,.33,6.44-2.1,7.82-2.05,2.12,.08,3.98,3.47,8.25,3.05,3.52-.35,6.89-2.09,8.29-2.04,2.58,.1,3.2,2.27,9.74,2.52,6.54,.25,6.66-1.9,8.48-1.83,1.82,.07,4.44,1.63,7.04,.85,2.6-.77,2.96-2.08,2.96-2.08,1.39,.47,2.48,.71,3.34,.78-1.38,3.23-4.04,7.32-6.23,7.24l-54.92-2.07c-2.1-.08-3.18-3.99-3.38-7.22,.98,.24,1.9,.25,1.9,.25Z"/>
                          <path class="cls-41" d="M603.92,245.37l68.57,2.48s.82,1.7,.1,2.72c-.34,.49-1.04,.82-2.33,.75-.89-.05-2.06-.29-3.61-.81,0,0-.37,1.31-2.97,2.08-2.6,.77-5.21-.78-7.04-.85-1.82-.07-1.94,2.08-8.48,1.83-6.54-.25-7.15-2.42-9.74-2.52-1.39-.05-4.76,1.68-8.29,2.03-4.26,.43-6.13-2.97-8.25-3.05-1.38-.05-4.11,2.38-7.82,2.05-3.88-.34-6.06-1.98-6.71-2.6,0,0-1.13-.01-2.21-.33-.91-.27-1.77-.77-1.92-1.66-.09-.55,.07-1.24,.69-2.14Z"/>
                          <path class="cls-41" d="M673.23,236.03l-42.35-1.6-12.34,5.64-7.28-6.38-3.23-.12c-.59-.02-1.03-.26-.98-.52l.12-.64c.05-.27,.57-.47,1.16-.44l65.2,2.46c.59,.02,1.03,.26,.98,.52l-.12,.64c-.05,.27-.57,.47-1.16,.44Z"/>
                          <path class="cls-41" d="M671.9,246.29l-66.43-2.5c-.61-.02-1.06-1.15-.8-2.51l.62-3.25c.26-1.36,1.14-2.44,1.75-2.42l4.76,.18,6.49,5.74,10.97-5.08,44.22,1.67c.61,.02,1.07,1.15,.81,2.51l-.62,3.25c-.26,1.36-1.14,2.44-1.75,2.42Z"/>
                          <path class="cls-41" d="M610.02,230.39l62.47,2.35c1.35-8.95-11.02-17.23-28.05-17.87-17.03-.64-32.36,6.59-34.42,15.51Zm54.7-5.14c.07-.36,.52-.65,1.01-.63s.83,.33,.76,.69-.52,.65-1.01,.63-.82-.33-.75-.69Zm-3.86,3.17c.07-.36,.52-.65,1.01-.63s.82,.33,.75,.69-.52,.65-1.01,.63-.82-.33-.75-.69Zm-.27-6.59c.07-.36,.52-.64,1.01-.63s.82,.33,.76,.69-.52,.65-1.01,.63-.82-.33-.75-.69Zm-3.82,3.12c.07-.36,.52-.65,1.01-.63s.82,.33,.76,.69-.52,.65-1.01,.63-.82-.33-.75-.69Zm-4.79,2.88c.07-.36,.52-.65,1.01-.63s.82,.33,.75,.69-.52,.65-1.01,.63-.82-.33-.75-.69Zm1.37-7.68c.07-.36,.52-.64,1.01-.63s.82,.33,.75,.69-.52,.65-1.01,.63-.83-.33-.76-.69Zm-3.97,3.74c.07-.36,.52-.65,1.01-.63s.82,.33,.75,.69-.52,.65-1.01,.63-.82-.33-.75-.69Zm-2.77-5.75c.07-.36,.52-.64,1.01-.63s.83,.33,.76,.69-.52,.65-1.01,.63-.82-.33-.75-.69Zm-3.42,7.94c.07-.36,.52-.64,1.01-.63s.82,.33,.75,.69-.52,.65-1.01,.63-.83-.33-.76-.69Zm-1.02-4.66c.07-.36,.52-.64,1.01-.63s.82,.33,.75,.69-.52,.65-1.01,.63-.82-.33-.75-.69Zm-5.41,2.71c.07-.36,.52-.65,1.01-.63s.82,.33,.75,.69-.52,.65-1.01,.63-.82-.33-.75-.69Zm.85-6.39c.07-.36,.52-.65,1.01-.63s.82,.33,.75,.69-.52,.64-1,.63-.82-.33-.76-.69Zm-6.94,9.04c.07-.36,.52-.64,1.01-.63s.82,.33,.76,.69-.52,.65-1.01,.63-.82-.33-.75-.69Zm.81-5.72c.07-.36,.52-.65,1.01-.63s.82,.33,.75,.69-.52,.65-1.01,.63-.83-.33-.76-.69Zm-4.57-.44c-.49-.02-.82-.33-.76-.69s.52-.65,1.01-.63,.82,.33,.75,.69-.52,.64-1.01,.63Zm-2.17,4.99c.07-.36,.52-.65,1.01-.63s.83,.33,.76,.69-.52,.64-1.01,.63-.82-.33-.75-.69Zm-4.81-2.09c.07-.36,.52-.64,1.01-.63s.82,.33,.75,.69-.52,.65-1.01,.63-.82-.33-.75-.69Z"/>
                        </g>
                        <g>
                          <path class="cls-2" d="M731.55,225.53l-.58-.02-.09,1.93s.01,.01,.02,.02v-.02s3.96,.15,3.96,.15v.33c0,4.29,5.38,7.86,12.27,8.12,6.96,.26,13.2-2.66,15.18-7.11l.13-.3,3.93,.15,.64-1.91-.8-.03,5.3-14.46-6.04-.92,1.21-3.93-6.43-.61-4.73,17.97,5.03-20.98-7.95-.1-.35,1.84,.55-3.77-7.95-.11-2.03,21.03,1.32-18.02-6.61,.44-.11,3.95-6.32,.76,.45,15.6Zm9.35,7.15c-1.49-.66-2.72-1.52-3.6-2.52,.21,.24,.44,.47,.69,.7l.7-24.5,4.15-.28-1.95,26.6Zm.92,.37c-.32-.12-.62-.24-.92-.37,.3,.13,.6,.26,.92,.37Zm17.23-27.95l-6.87,28.66c-1.32,.25-2.7,.37-4.12,.36l.12-.79,5.36-28.3,5.51,.07Zm-5.83,28.43c-.34,.08-.69,.16-1.04,.22,.35-.07,.7-.14,1.04-.22Zm11.9-24.92l-7.08,22.99c.32-.2,.62-.4,.91-.61,.09-.06,.16-.13,.25-.2-1.52,1.18-3.51,2.11-5.76,2.69,.37-.09,.72-.2,1.07-.31l6.56-24.94,4.04,.39Zm-3.01,18.06c-.28,1.18-.96,2.28-1.94,3.26,.17-.17,.33-.35,.48-.53l5.26-16.62,3.98,.61-4.9,13.38-2.88-.11Zm-2.52,3.81c.17-.15,.33-.3,.48-.45-.16,.15-.31,.3-.48,.45Zm-12.13,3.63c-1.99-.07-3.81-.43-5.4-.98,.3,.1,.6,.2,.91,.29l2.93-30.41,5.51,.08-4.43,30.24-.14,.74s.02,0,.03,0c.2,.01,.39,.03,.59,.04s.38,0,.56,0c0,0,.02,0,.02,0-.2,0-.39,0-.59,0Zm-10.96-5.09c.1,.18,.2,.36,.33,.53-.12-.17-.22-.35-.33-.53Zm-3.75-3.45l-.43-14.58,4.17-.5-.36,17.77c.08,.22,.18,.45,.3,.66-.54-1-.76-2.09-.59-3.23l-3.09-.12Z"/>
                          <path class="cls-2" d="M730.74,228.76l-1.55,31.63-1.39-.05-.39,2.05,29.13,1.1,.39-2.05-1.39-.05,10.45-31.28-3.21-.12c-2.3,4.71-8.64,7.66-15.92,7.39-7.2-.27-12.66-3.89-12.91-8.48l-3.21-.12v-.02s-.01,0-.02,.01Zm22.01,19.36c-.04,.21-.61,.37-1.27,.34l-13.36-.5c-.66-.02-1.16-.22-1.12-.43l.9-4.7c.04-.21,.61-.37,1.27-.34l13.36,.5c.66,.02,1.16,.22,1.12,.43l-.9,4.7Z"/>
                        </g>
                        <g>
                          <path class="cls-2" d="M591.32,334.1c-.38,3.27,.09,5.75,.72,7.95,.24,.84,1.18,3.9,2.74,5.98-.67,.16-1.26,.31-1.68,.42-1.69,.45-7.07,2.7-7.42-3.25-.21-3.63,3.06-8.14,5.64-11.1Z"/>
                          <path class="cls-2" d="M651.64,336.37c1.42,3.11,2.94,7.8,1.35,11.36-2.6,5.84-7.04,3.22-8.54,2.65-.37-.14-.9-.33-1.5-.54,2.33-1.93,4.42-4.88,4.97-5.69,1.44-2.12,2.85-4.53,3.72-7.78Z"/>
                          <path class="cls-2" d="M593.26,332c.05-.24,.09-.46,.15-.71,.74-3,5.41-5.91,8.4-7.5-1.87,5.37-.48,12.02-.46,12.11,.06,.24,.14,.64,.25,1.15,.99,4.83,2,8.57,3.4,10.57-2.64,.42-5.86,.86-6.93,.75-.47-.05-.94-.34-1.38-.79-1.37-1.38-2.53-4.25-3.09-6.22-.7-2.47-1.2-5.29-.33-9.36Z"/>
                          <path class="cls-2" d="M641.08,337.4c.05-.08,3.94-6.53,4.14-11.97,2.35,1.79,5.85,5.01,5.44,8.02-.03,.25-.08,.47-.12,.71-.68,4.08-2.25,6.83-3.87,9.2-1.3,1.9-3.53,4.65-5.4,5.9-.61,.41-1.18,.66-1.66,.67-1.11,.03-4.11-.65-6.55-1.26,2.13-1.87,4.54-5.47,7.35-10.15,.3-.5,.54-.9,.69-1.13Z"/>
                          <path class="cls-2" d="M603.91,322.74c.45-.86,1.02-1.63,1.74-2.25,.03-.03,.06-.06,.09-.09,1.18-.97,3.01-1.61,5.07-2.03-.03,.2-.05,.41-.04,.62,.07,1.41,.47,3.02,.95,4.88,.64,2.55,1.44,5.72,1.55,9.25,.14,4.98,.92,8.01,4.36,8.96l4,.14c3.72-.69,5.63-3.62,7.64-8.5,1.44-3.47,3.43-6.54,5.02-9,1.17-1.8,2.18-3.36,2.78-4.74,.13-.29,.2-.58,.25-.86,2.32,.59,4.33,1.44,5.28,2.67,.02,.03,.04,.07,.06,.1,.48,.66,.75,1.46,.87,2.35,.59,4.48-2.89,11.06-3.76,12.42-1.01,1.56-5.68,9.97-8.62,11.54-.14,.08-.28,.14-.41,.18-1.14,.36-2.22,.4-3.5,.29-1.94-.16-4.35-.64-8.18-.78-4.04-.15-6.51,.12-8.36,.15-1.31,.02-2.31-.08-3.33-.54-.12-.05-.23-.13-.34-.21-2.3-1.77-3.73-10.41-4.13-12.02-.35-1.4-1.28-8.15,1-12.52Z"/>
                          <path class="cls-2" d="M627.81,333.3c-2.35,5.67-4.07,7.35-7.53,7.44v.02c-.14,0-.67-.03-.81-.03v-.02c-3.37-.34-4.43-2.12-4.6-7.89-.18-6.2-2.34-11.06-2.49-14.16,0-.2,.01-.38,.06-.56,.23-.87,1.12-1.48,2.39-1.9,2.39-.79,6.16-.93,9.6-.82h0c.1,0,.19,0,.28,.01,.09,0,.19,0,.28,0h0c3.19,.15,6.59,.51,8.7,1.33,1.28,.5,2.07,1.16,2.08,2.05,0,.24-.03,.49-.15,.76-1.32,3.05-5.3,7.67-7.82,13.77Z"/>
                        </g>
                        <path class="cls-40" d="M709.92,296.81v2.75s13.49-2.19,13.49-2.19l.55,4.46-.93-.03-1.1,11.39-3.95,40.91,25.96,.98,11.6-40.62,3.23-11.31-32-1.21-.95-7.71-15.91,2.58Zm31.25,41.92c-1.49-.06-2.46-1.37-2.17-2.93s1.75-2.78,3.24-2.72,2.46,1.37,2.17,2.93-1.75,2.78-3.24,2.72Zm-3.56,1.42c.12-.61,.68-1.09,1.27-1.06s.96,.53,.85,1.14-.68,1.08-1.27,1.06-.96-.53-.85-1.14Zm-10.23,7.41c.19-.97,1.09-1.74,2.03-1.7s1.54,.85,1.35,1.83-1.09,1.74-2.03,1.7-1.54-.85-1.36-1.83Zm3.3-21.42c.3-1.59,1.78-2.83,3.3-2.77s2.5,1.39,2.2,2.98-1.78,2.83-3.3,2.77-2.51-1.39-2.2-2.98Zm-3.65-22.16l29.3,1.1-2.65,9.3-25.49-.96-1.16-9.44Zm-2.54,2.18l.88,7.15-1.57-.06,.69-7.09Z"/>
                        <g>
                          <polygon class="cls-40" points="510.35 414.32 503.51 418.31 498.38 413.81 505.21 409.82 510.35 414.32"/>
                          <polygon class="cls-40" points="496.38 413.73 491.9 416.24 490.85 409.04 496.38 413.73"/>
                          <polygon class="cls-40" points="491.9 416.24 492.03 417.11 491.89 416.25 491.9 416.24"/>
                          <polygon class="cls-40" points="501.52 428.22 496.39 423.72 503.23 419.73 508.4 424 508.06 424.61 501.52 428.22"/>
                          <polygon class="cls-40" points="492.08 417.39 497.24 414.48 502.37 418.98 495.53 422.97 492.61 420.54 492.93 422.49 494.39 423.64 493.19 424.39 493.38 425.53 495.25 424.39 500.38 428.89 494.24 432.16 492.03 417.11 492.08 417.39"/>
                          <polygon class="cls-40" points="494.24 432.16 494.41 433.31 494.22 432.17 494.24 432.16"/>
                          <polygon class="cls-40" points="495.58 441.27 495.39 440.13 495.41 440.12 495.58 441.27 495.58 441.27"/>
                          <polygon class="cls-40" points="507.92 424.86 508.06 424.61 508.07 424.61 507.92 424.86"/>
                          <polygon class="cls-40" points="508.42 424.01 508.4 424 509.03 422.88 509.06 422.91 508.42 424.01"/>
                          <polygon class="cls-40" points="499.6 437.78 494.56 434.19 494.88 436.14 498.39 438.8 495.41 440.12 494.41 433.31 494.41 433.31 501.23 429.64 503.88 431.88 504.53 430.79 502.37 428.97 506.96 426.51 507.92 424.86 500.37 438.31 499.6 437.78"/>
                          <polygon class="cls-40" points="499.74 439.43 496.23 445.69 495.58 441.27 498.87 439.76 499.74 439.43"/>
                          <polygon class="cls-40" points="500.39 438.33 499.75 439.43 499.74 439.43 500.37 438.31 500.39 438.33"/>
                          <path class="cls-40" d="M490.06,404.14s.05,.03,.07,.05l-.03,.19s.04,.03,.06,.04l.37,2.52,1,.88,2.36-1.38c.43,.18,.86,.34,1.3,.5l-2.8,1.63,5.13,4.5,6.84-3.99-.83-.73c.64,.02,1.28,.02,1.9,0l.07,.07,.12-.07c.83-.03,1.64-.08,2.41-.16l-1.68,.98,5.13,4.5,4-2.34-1.11,1.9-2.04,1.19,.89,.78-.65,1.1-1.39-1.21-6.84,3.99,4.67,3.82,7.16-12.76,.88-1.56-2.01-1.77c.51-.15,.98-.3,1.39-.44l1.25,1.09,1.13-2.02s.01,0,.02,0v-.03s.04-.05,.04-.05c0,0,0,0,0,0,1.43-1.82,2.35-4.02,2.48-6.29,.22-4.06-2.11-7.26-5.74-8.19,.43-.7,.78-1.44,1.04-2.23,.31-.93,.47-1.87,.5-2.79,.04-1.5-.3-2.95-1-4.23-1.12-2.05-3.04-3.46-5.41-3.95-.5-.1-1.01-.17-1.53-.19-4.56-.17-8.94,2.95-10.42,7.42,0,0,0,0,0,0-.66,2.01-.63,4-.05,5.73-3.86,.36-7.42,3.3-8.73,7.36-.7,2.18-.64,4.34,.04,6.16Zm9.03-12.67c.35-.01,.69,0,1.03,.03,.29,.03,.58,.07,.86,.14,1.74,.38,6.62,2.97,4.96,9.87-.37,1.55-1.35,2.88-2.43,3.96-.66,.79-1.93,1.44-2.26,1.67-3.5-.38-7.12-1.42-10.5-3.54-.58-1.63-.63-3.53,0-5.46,1.24-3.84,4.74-6.52,8.34-6.67Zm15.71-.78c-.14,.21-.28,.41-.43,.61-.01-.01-.03-.02-.04-.03-1.43,1.71-3.36,3.05-5.56,3.67-.72,.2-1.43,.32-2.12,.35-.02,.03-.04,.06-.05,.09-.03-.08-.06-.15-.09-.23-.07-.16-.14-.31-.22-.47-.04-.09-.09-.18-.14-.27-.13-.25-.28-.48-.44-.71-1.06-1.51-2.6-2.54-4.43-2.94-.46-.1-.94-.17-1.42-.18-.06,0-.11,0-.17,0-.43-1.08-.62-2.28-.51-3.53,.25,.25,.51,.45,.51,.45,.12,.05,.24,.08,.39,.08,2.12,.1-.07-3.93,2.05-3.84,2.12,.1-1.39,3.58,1.21,3.49,2.06-.07,.45-2.7,2.57-2.61,2.12,.1-.99,3.84,.73,4.89,.13,.08,.29,.36,1.26,.06,2.28-.7,.8-6.59,2.92-6.49,2.12,.09-2.82,5.35,.98,5.86,3.1,.41,.22-4.53,2.56-4.65,2.15-.1-1.27,3.77,.88,3.65,0,0,.55-.31,.94-.54-.07,.35-.16,.7-.28,1.06-.26,.8-.63,1.54-1.08,2.22Zm3.47,14.13c-2.17,.82-8.55,2.9-15.71,2.43,.54-.34,1.14-.75,1.37-1.12,1.22-1.21,2.19-2.73,2.74-4.46,.6-1.87,.65-3.76,.18-5.47,.12-.01,.24-.02,.37-.03,.54-.06,1.09-.18,1.63-.33,2.3-.65,4.61-2.21,6.22-4.11,3.37,.77,5.65,3.67,5.44,7.44-.11,2.05-.94,4.02-2.24,5.66Z"/>
                        </g>
                        <g>
                          <path class="cls-41" d="M484.74,329.82c7.41,3.33,13.84,5.55,18.1,6.24,2.31,.37,8.36,1.27,14.7,1.51h.12c5.7,.21,11.53-.16,14.5-.4,4.46-.36,11.63-2.06,20.2-4.8,.03,0,.07-.02,.1-.03h.04c-2,10.47-14.27,14.98-37.2,14.11-23.52-.89-32.73-5.87-30.67-16.67h.04s.06,.03,.08,.04Z"/>
                          <path class="cls-41" d="M520.23,322.23c-7.37-.44-17.6-2.55-23.78-4.9,4.54-.65,12.15-.64,25.05-.15,12.73,.48,20.1,1,24.24,1.95-.05,.01-.09,.03-.14,.04-6.98,1.86-17.89,3.18-25.37,3.06Z"/>
                          <path class="cls-41" d="M485.24,328.56c.42,.19,1.02,.46,1.74,.77,3.7,1.61,10.89,4.56,16.2,5.42,3.03,.49,8.85,1.29,14.74,1.5,5.65,.21,11.37-.16,14.41-.4,5.56-.45,13.76-2.82,18.02-4.13,.83-.26,1.53-.47,2.01-.63,2.95-.94,8.44-2.7,8.33-8.74-.12-7.03-7-4.24-13.64-2.3-.49,.14-.98,.28-1.47,.41-6.57,1.75-17.64,3.21-25.58,3.09-7.88-.47-18.24-2.74-24.05-4.96-.38-.14-.76-.3-1.14-.45-5.87-2.42-11.66-5.81-14.47,1.18-2.39,5.95,2.35,8.1,4.9,9.24Zm-4.62-8.69c.08-.22,.68-.66,.68-.66l.3,.05c.83,.13,1.44-.05,2.14-.29,.73-.25,1.55-.54,2.63-.5,.58,.02,1.17,.13,1.8,.34,1.1,.35,1.86,.84,2.44,1.38,.57,.52,.97,1.09,1.33,1.6,.46,.65,.8,1.08,1.34,1.31,.09,.04,.18,.09,.29,.12,.43,.11,.82,.06,1.25-.06,.26-.07,.53-.17,.85-.29,.9-.35,2.02-.78,3.56-.73,.44,.02,.9,.07,1.37,.17,1.21,.24,2.06,.67,2.74,1.17,.56,.4,1,.85,1.43,1.27,.65,.65,1.22,1.22,2.21,1.36,.68,.1,1.13-.15,1.96-.64,1.11-.65,2.51-1.47,4.9-1.26,2.27,.19,3.35,1.1,4.35,1.93,.78,.65,1.3,1.05,2.3,1.09,.79,.02,1.4-.32,2.36-.91,1.19-.73,2.68-1.64,5.05-1.7,2.38-.07,3.64,.78,4.66,1.47,.78,.53,1.28,.83,2.06,.76,.77-.06,1.25-.42,1.99-.98,.46-.35,.97-.73,1.6-1.08,.8-.44,1.8-.83,3.17-1.01,.5-.07,.98-.09,1.43-.07,1.5,.06,2.47,.57,3.28,1,.32,.17,.62,.31,.92,.42,.43,.15,.88,.22,1.44,.12,.08-.01,.13-.04,.2-.06,.54-.15,.83-.47,1.3-1.02,.17-.2,.35-.41,.55-.63,.74-.79,1.78-1.62,3.79-2.08,.72-.17,1.35-.24,1.93-.21,1.01,.04,1.68,.35,2.28,.62,.35,.16,.67,.3,1.05,.38l.22,.05s.44,.87,.35,1.2c-.06,.23-.67,.75-.67,.75-.97-.07-1.65-.38-2.15-.62-.53-.25-.94-.44-1.56-.46-.38-.01-.81,.04-1.33,.16-1.71,.39-2.27,1.06-2.93,1.85-.59,.7-1.39,1.66-2.99,1.96-.4,.07-.79,.1-1.16,.09-1.07-.04-1.83-.45-2.52-.82-.74-.4-1.38-.74-2.42-.78-.33-.01-.68,0-1.07,.06-1.79,.23-2.65,.89-3.58,1.6-.83,.63-1.78,1.35-3.26,1.48-1.54,.12-2.47-.51-3.32-1.09-.91-.61-1.76-1.19-3.5-1.14-1.74,.04-2.76,.67-3.9,1.37-.98,.6-2.09,1.28-3.61,1.24h-.05c-1.67-.06-2.62-.86-3.41-1.53-.86-.73-1.61-1.36-3.28-1.5-1.68-.14-2.53,.35-3.54,.95-.9,.53-1.92,1.14-3.41,.94-1.63-.23-2.53-1.14-3.29-1.91-.84-.85-1.56-1.58-3.19-1.91-.36-.07-.7-.12-1.03-.13-1.09-.04-1.86,.26-2.69,.58-.72,.28-1.53,.6-2.5,.56-.3-.01-.6-.06-.89-.13-1.39-.36-2.04-1.26-2.62-2.09-.01-.02-.02-.03-.03-.05-.18-.26-.37-.52-.57-.77-.5-.61-1.12-1.15-2.26-1.52-.46-.15-.86-.23-1.25-.24-.68-.03-1.22,.16-1.85,.39-.65,.23-1.47,.51-2.5,.47-.31-.01-.63-.05-.96-.12,0,0-.64-.09-.19-1.26Z"/>
                        </g>
                      </g>
                    </g>
                  </g>
                  <path class="cls-17" d="M430.91,508.15h4.24c181.2-.14,335.07-133.73,356.66-309.63l14.58-118.85h6.99c4.97,0,8.79,4.2,8.2,9.02l-52.62,428.82c-.51,4.16-4.15,7.31-8.43,7.32l-322.39,.25c-4.97,0-8.79-4.2-8.2-9.03l.97-7.9Z"/>
                </g>
                <path class="cls-12" d="M429.95,527.85l52.61-440.43c.51-4.27,4.15-7.51,8.43-7.52l322.39-.25c4.32,0,7.77,3.26,8.21,7.37-.11,0-.21-.02-.32-.02l-322.39,.25c-4.28,0-7.92,3.25-8.43,7.51l-52.61,440.43c-.08,.65-.08,1.28,0,1.9-4.82-.18-8.46-4.4-7.88-9.26Z"/>
              </g>
            </g>
            <polygon class="cls-19" points="790.55 79.99 435.94 486.6 446.35 400.31 660.92 102.12 455.09 354.04 622.34 98.75 456.3 296.43 464.54 244.16 583.72 80.7 790.55 79.99"/>
          </g>
          <path class="cls-30" d="M578.69,45.05h-116.69c-7.98,0-15.48,6.32-16.77,14.12l-35.22,289.71"/>
          <g>
            <g>
              <rect class="cls-2" x="544.33" y="587.45" width="68.1" height="6.9" transform="translate(1156.76 1181.79) rotate(-180)"/>
              <g>
                <polygon class="cls-2" points="621.94 533.82 635.88 525.16 635.88 578.44 612.37 594.26 612.43 587.45 621.94 533.82"/>
                <polygon class="cls-32" points="635.88 525.16 612.43 587.45 544.33 587.45 569.61 525.16 635.88 525.16"/>
                <polygon class="cls-32" points="635.88 525.16 612.43 587.45 544.33 587.45 569.61 525.16 635.88 525.16"/>
                <polygon class="cls-21" points="607.33 583.87 628.09 528.74 573.99 528.74 551.73 583.87 607.33 583.87"/>
                <polygon class="cls-21" points="576.95 531.1 555.65 583.87 551.73 583.87 573.99 528.74 628.09 528.74 627.2 531.1 576.95 531.1"/>
              </g>
              <rect class="cls-21" x="544.33" y="587.45" width="68.1" height="6.9" transform="translate(1156.76 1181.79) rotate(-180)"/>
            </g>
            <g>
              <path class="cls-33" d="M605.58,543.42h3.52c1.79,0,3.75-1.32,4.38-2.96l1.58-4.08c.63-1.63-.3-2.96-2.09-2.96h-3.52c-1.79,0-3.75,1.32-4.38,2.96l-1.58,4.08c-.63,1.63,.3,2.96,2.09,2.96Z"/>
              <path class="cls-33" d="M593.25,543.42h3.52c1.79,0,3.75-1.32,4.38-2.96l1.58-4.08c.63-1.63-.3-2.96-2.09-2.96h-3.52c-1.79,0-3.75,1.32-4.38,2.96l-1.58,4.08c-.63,1.63,.3,2.96,2.09,2.96Z"/>
              <path class="cls-33" d="M580.93,543.42h3.52c1.79,0,3.75-1.32,4.38-2.96l1.58-4.08c.63-1.63-.3-2.96-2.09-2.96h-3.52c-1.79,0-3.75,1.32-4.38,2.96l-1.58,4.08c-.63,1.63,.3,2.96,2.09,2.96Z"/>
              <path class="cls-33" d="M600.72,555.99h3.52c1.79,0,3.75-1.32,4.38-2.96l1.58-4.08c.63-1.63-.3-2.96-2.09-2.96h-3.52c-1.79,0-3.75,1.32-4.38,2.96l-1.58,4.08c-.63,1.63,.3,2.96,2.09,2.96Z"/>
              <path class="cls-33" d="M588.4,555.99h3.52c1.79,0,3.75-1.32,4.38-2.96l1.58-4.08c.63-1.63-.3-2.96-2.09-2.96h-3.52c-1.79,0-3.75,1.32-4.38,2.96l-1.58,4.08c-.63,1.63,.3,2.96,2.09,2.96Z"/>
              <path class="cls-33" d="M576.07,555.99h3.52c1.79,0,3.75-1.32,4.38-2.96l1.58-4.08c.63-1.63-.3-2.96-2.09-2.96h-3.52c-1.79,0-3.75,1.32-4.38,2.96l-1.58,4.08c-.63,1.63,.3,2.96,2.09,2.96Z"/>
              <path class="cls-33" d="M595.86,568.57h3.52c1.79,0,3.75-1.32,4.38-2.96l1.58-4.08c.63-1.63-.3-2.96-2.09-2.96h-3.52c-1.79,0-3.75,1.32-4.38,2.96l-1.58,4.08c-.63,1.63,.3,2.96,2.09,2.96Z"/>
              <path class="cls-33" d="M583.54,568.57h3.52c1.79,0,3.75-1.32,4.38-2.96l1.58-4.08c.63-1.63-.3-2.96-2.09-2.96h-3.52c-1.79,0-3.75,1.32-4.38,2.96l-1.58,4.08c-.63,1.63,.3,2.96,2.09,2.96Z"/>
              <path class="cls-33" d="M567.16,578.07h28.95c1.56,0,3.28-1.16,3.83-2.59l.6-1.56c.55-1.43-.27-2.59-1.83-2.59h-28.95c-1.56,0-3.28,1.16-3.83,2.59l-.6,1.56c-.55,1.43,.27,2.59,1.83,2.59Z"/>
              <path class="cls-33" d="M571.22,568.57h3.52c1.79,0,3.75-1.32,4.38-2.96l1.58-4.08c.63-1.63-.3-2.96-2.09-2.96h-3.52c-1.79,0-3.75,1.32-4.38,2.96l-1.58,4.08c-.63,1.63,.3,2.96,2.09,2.96Z"/>
              <path class="cls-12" d="M566.23,576.97h28.95c1.56,0,3.28-1.16,3.83-2.59l.6-1.56c.18-.47,.2-.91,.11-1.29,.87,.39,1.24,1.31,.82,2.39l-.6,1.56c-.55,1.43-2.27,2.59-3.83,2.59h-28.95c-1.05,0-1.75-.53-1.94-1.3,.29,.13,.62,.2,1.01,.2Z"/>
              <path class="cls-12" d="M595.44,567.63h3.52c1.79,0,3.75-1.32,4.38-2.96l1.58-4.08c.18-.47,.22-.9,.16-1.29,.47,.54,.61,1.33,.26,2.22l-1.58,4.08c-.63,1.63-2.59,2.96-4.38,2.96h-3.52c-1.28,0-2.11-.68-2.25-1.67,.39,.45,1.02,.74,1.83,.74Z"/>
              <path class="cls-12" d="M583.08,567.63h3.52c1.79,0,3.75-1.32,4.38-2.96l1.58-4.08c.18-.47,.22-.9,.16-1.29,.47,.54,.61,1.33,.26,2.22l-1.58,4.08c-.63,1.63-2.59,2.96-4.38,2.96h-3.52c-1.28,0-2.11-.68-2.25-1.67,.39,.45,1.02,.74,1.83,.74Z"/>
              <path class="cls-12" d="M570.72,567.63h3.52c1.79,0,3.75-1.32,4.38-2.96l1.58-4.08c.18-.47,.22-.9,.16-1.29,.47,.54,.61,1.33,.26,2.22l-1.58,4.08c-.63,1.63-2.59,2.96-4.38,2.96h-3.52c-1.28,0-2.11-.68-2.25-1.67,.39,.45,1.02,.74,1.83,.74Z"/>
              <path class="cls-12" d="M600.35,555.02h3.52c1.79,0,3.75-1.32,4.38-2.96l1.58-4.08c.18-.47,.22-.9,.16-1.29,.47,.54,.61,1.33,.26,2.22l-1.58,4.08c-.63,1.63-2.59,2.96-4.38,2.96h-3.52c-1.28,0-2.11-.68-2.25-1.67,.39,.45,1.02,.74,1.83,.74Z"/>
              <path class="cls-12" d="M587.99,555.02h3.52c1.79,0,3.75-1.32,4.38-2.96l1.58-4.08c.18-.47,.22-.9,.16-1.29,.47,.54,.61,1.33,.26,2.22l-1.58,4.08c-.63,1.63-2.59,2.96-4.38,2.96h-3.52c-1.28,0-2.11-.68-2.25-1.67,.39,.45,1.02,.74,1.83,.74Z"/>
              <path class="cls-12" d="M575.63,555.02h3.52c1.79,0,3.75-1.32,4.38-2.96l1.58-4.08c.18-.47,.22-.9,.16-1.29,.47,.54,.61,1.33,.26,2.22l-1.58,4.08c-.63,1.63-2.59,2.96-4.38,2.96h-3.52c-1.28,0-2.11-.68-2.25-1.67,.39,.45,1.02,.74,1.83,.74Z"/>
            </g>
          </g>
        </g>
        <polygon class="cls-11" points="982.51 473.82 778.77 473.82 781.41 489.63 986.46 489.63 982.51 473.82"/>
        <g>
          <g>
            <g>
              <g>
                <g>
                  <polygon class="cls-24" points="757.98 725.35 1260.25 775.15 1431.22 631.86 761.64 628.2 757.98 725.35"/>
                  <polygon class="cls-24" points="1431.22 631.86 1313.9 708.85 1319.4 844.81 1431.22 775.15 1431.22 631.86"/>
                  <polygon class="cls-13" points="1431.22 631.86 1319.13 709.25 1319.4 844.81 1431.22 775.15 1431.22 631.86"/>
                  <polygon class="cls-24" points="839.35 745.13 646.16 709.67 761.64 628.2 1429.7 631.86 1313.9 708.85 1022.22 759.19 839.35 745.13"/>
                  <polygon class="cls-18" points="839.35 745.13 646.16 709.67 761.64 627.79 1429.7 631.86 1319.63 708.54 1022.22 759.19 839.35 745.13"/>
                  <polygon class="cls-24" points="646.16 844.81 1319.4 844.81 1319.4 708.85 646.16 709.67 646.16 844.81"/>
                  <polygon class="cls-9" points="1311.26 836.67 1311.26 717.01 654.3 717.79 654.3 836.67 1311.26 836.67"/>
                </g>
                <g>
                  <g>
                    <rect class="cls-32" x="930.63" y="763.3" width="192.32" height="27.36" rx="13.68" ry="13.68" transform="translate(2053.59 1553.97) rotate(-180)"/>
                    <rect class="cls-32" x="662.31" y="763.3" width="202.25" height="27.36" rx="13.68" ry="13.68" transform="translate(1526.87 1553.97) rotate(180)"/>
                  </g>
                  <g>
                    <circle class="cls-15" cx="892.63" cy="776.98" r="21.53"/>
                    <circle class="cls-15" cx="892.63" cy="776.98" r="14.82"/>
                  </g>
                </g>
                <polygon class="cls-10" points="1024.86 657.39 1051.28 666.23 1106.41 631.03 880.17 629.8 872.51 666.23 1024.86 657.39"/>
              </g>
              <g>
                <g>
                  <g>
                    <path class="cls-24" d="M774.23,621.53h372.05c7.98,0,15.48-6.41,16.77-14.32l41.35-254.55c1.28-7.91-4.13-17.36-20.09-19.09l-364.08,4.78c-7.98,0-15.48,6.41-16.77,14.32l-51.75,254.8c-1.28,7.91,5.13,13.87,22.51,14.06Z"/>
                    <g>
                      <polygon class="cls-32" points="874.02 665.64 1048.69 665.64 1053.5 663.11 1035.98 597.15 861.31 597.15 874.02 665.64"/>
                      <polygon class="cls-2" points="869.21 665.9 1049.24 665.9 1031.17 597.41 856.5 597.41 869.21 665.9"/>
                      <polyline class="cls-4" points="1039.2 609.36 1039.75 611.53 1044.74 631.05 862.43 631.05 856.5 597.41"/>
                    </g>
                    <path class="cls-2" d="M774.23,621.53h372.05c7.98,0,15.48-6.41,16.77-14.32l41.35-254.55c1.28-7.91-4.13-17.36-20.09-19.09l-364.08,4.78c-7.98,0-15.48,6.41-16.77,14.32l-52.46,249.48c-1.52,14.06,5.83,19.18,23.22,19.38Z"/>
                    <path class="cls-32" d="M763.89,613.02h372.05c7.98,0,15.48-6.32,16.77-14.12l41.35-251.08c1.28-7.8-4.14-14.12-12.12-14.12h-372.05c-7.98,0-15.48,6.32-16.77,14.12l-41.35,251.08c-1.28,7.8,4.14,14.12,12.12,14.12Z"/>
                    <path class="cls-15" d="M1131.71,333.7h50.23c7.98,0,13.4,6.32,12.12,14.12l-41.35,251.08c-1.28,7.8-8.79,14.12-16.77,14.12h-372.05c-7.98,0,243.01-51.19,367.82-279.32Z"/>
                    <path class="cls-33" d="M1135.58,588.75l38.01-230.79c.54-3.26-1.73-5.9-5.06-5.9h-351.3c-3.33,0-6.46,2.64-7,5.9l-38.01,230.79c-.54,3.26,1.73,5.9,5.06,5.9h351.3c3.33,0,6.46-2.64,7-5.9Z"/>
                    <path class="cls-2" d="M1171.52,370.6h-363.36s2.08-12.63,2.08-12.63c.54-3.26,3.67-5.9,7-5.9h351.3c3.33,0,5.59,2.64,5.06,5.9l-2.08,12.63Z"/>
                    <path class="cls-12" d="M1165.62,364.48c.54-3.26-1.73-5.9-5.06-5.9h-350.42s.1-.62,.1-.62c.54-3.26,3.67-5.9,7-5.9h351.3c3.33,0,5.59,2.64,5.06,5.9l-38.01,230.79c-.54,3.26-3.67,5.9-7,5.9h-.87s37.91-230.16,37.91-230.16Z"/>
                  </g>
                  <g>
                    <polygon class="cls-2" points="886.38 431.24 1108.16 431.24 1113.77 404.46 892 404.46 886.38 431.24"/>
                    <polygon class="cls-2" points="829.86 513.28 1051.64 513.28 1057.26 486.49 835.48 486.49 829.86 513.28"/>
                    <polygon class="cls-2" points="970.76 471.42 1099.74 471.42 1105.35 444.64 976.37 444.64 970.76 471.42"/>
                    <polygon class="cls-40" points="818.19 471.42 947.17 471.42 952.78 444.64 823.8 444.64 818.19 471.42"/>
                    <polygon class="cls-40" points="951.29 556.8 1080.26 556.8 1085.88 530.02 956.9 530.02 951.29 556.8"/>
                    <polygon class="cls-2" points="852.57 556.8 929.27 556.8 934.88 530.02 858.18 530.02 852.57 556.8"/>
                  </g>
                  <polygon class="cls-23" points="1042.43 351.78 835.66 595.05 786.74 595.05 939.97 368.91 783.05 567.36 909.51 366.14 783.42 521.86 790.07 480.6 879.05 351.78 1042.43 351.78"/>
                </g>
                <path class="cls-30" d="M911.32,316.78h-116.69c-7.98,0-15.48,6.32-16.77,14.12l-41.35,251.08c-1.28,7.8,4.14,14.12,12.12,14.12"/>
                <path class="cls-30" d="M1178.79,330.9c1.28-7.8-4.14-14.12-12.12-14.12h-180.59"/>
              </g>
            </g>
            <g>
              <line class="cls-31" x1="643.71" y1="785.32" x2="643.71" y2="794.76"/>
              <line class="cls-31" x1="643.71" y1="725.21" x2="643.71" y2="773.93"/>
              <polyline class="cls-31" points="698.54 704.72 643.71 704.72 643.71 715.65"/>
              <line class="cls-31" x1="877.76" y1="704.72" x2="720.98" y2="704.72"/>
            </g>
          </g>
          <g>
            <g>
              <polygon class="cls-32" points="1256.38 697.16 1308.74 665.92 1346.6 680.72 1314.75 697.16 1256.38 697.16"/>
              <g>
                <polygon class="cls-32" points="1284.29 680.82 1346.61 680.82 1320.03 558 1257.71 558 1284.29 680.82"/>
                <polygon class="cls-15" points="1284.29 680.82 1346.61 680.82 1320.03 558 1257.71 558 1284.29 680.82"/>
              </g>
              <g>
                <path class="cls-32" d="M1314.77,517.43l44.44-18.41,15.24,31.11-29.55,56.4,3.52,19.14-35.49,64.68c-1.49,2.71-4.34,4.39-7.43,4.37l-117.33-.72-15.4-28.82c-1.86-3.48-1.03-7.79,2-10.33l140-117.41Z"/>
                <path class="cls-2" d="M1314.77,517.43l44.44-18.41,15.24,31.11-29.55,56.4,3.52,19.14-35.49,64.68c-1.49,2.71-4.34,4.39-7.43,4.37l-117.33-.72-15.4-28.82c-1.86-3.48-1.03-7.79,2-10.33l140-117.41Z"/>
                <path class="cls-5" d="M1305.5,674.71l-117.33-.72-15.4-28.82c-1.15-2.14-1.27-4.6-.49-6.76l25.22-4.97,90.36,7.85,23.02,31.51c-1.49,1.22-3.38,1.93-5.38,1.92Z"/>
                <path class="cls-32" d="M1352.01,492.74l-97.83,.53c-2.96,.02-5.68,1.63-7.1,4.22l-74.84,136.07c-2.99,5.44,.94,12.09,7.15,12.09h101.25c3.04,0,5.82-1.69,7.23-4.38l71.42-136.61c2.85-5.45-1.13-11.97-7.27-11.93Z"/>
                <rect class="cls-32" x="1195.03" y="656.98" width="75.81" height="5.71" rx="2.86" ry="2.86" transform="translate(2465.87 1319.67) rotate(-180)"/>
                <g class="cls-39">
                  <g>
                    <g>
                      <g>
                        <path class="cls-25" d="M1177.86,712.43h59.36c2.29,0,4.96-1.65,5.96-3.69l41.72-84.65c1-2.04-.04-3.69-2.33-3.69h-59.36c-2.29,0-4.96,1.65-5.96,3.69l-41.72,84.65c-1,2.04,.04,3.69,2.33,3.69Z"/>
                        <g class="cls-16">
                          <path class="cls-25" d="M1177.86,712.43h59.36c2.29,0,4.96-1.65,5.96-3.69l41.72-84.65c1-2.04-.04-3.69-2.33-3.69h-59.36c-2.29,0-4.96,1.65-5.96,3.69l-41.72,84.65c-1,2.04,.04,3.69,2.33,3.69Z"/>
                        </g>
                      </g>
                      <path class="cls-40" d="M1177.86,711.28h59.36c2.29,0,4.96-1.65,5.96-3.69l41.72-84.65c1-2.04-.04-3.69-2.33-3.69h-59.36c-2.29,0-4.96,1.65-5.96,3.69l-41.72,84.65c-1,2.04,.04,3.69,2.33,3.69Z"/>
                    </g>
                    <polygon class="cls-32" points="1219.46 711.28 1231.6 711.28 1276.86 619.45 1264.72 619.45 1219.46 711.28"/>
                    <polygon class="cls-43" points="1199.05 680.54 1207.15 680.54 1233.65 626.78 1225.55 626.78 1199.05 680.54"/>
                    <polygon class="cls-43" points="1220.09 662.49 1228.19 662.49 1245.79 626.78 1237.69 626.78 1220.09 662.49"/>
                  </g>
                </g>
                <g>
                  <path class="cls-33" d="M1237.4,554.37h74.31c4.22,0,9.32-3.07,11.4-6.85l19.06-34.7c2.08-3.78,.34-6.85-3.88-6.85h-74.31c-4.22,0-9.32,3.07-11.4,6.85l-19.06,34.7c-2.08,3.78-.34,6.85,3.88,6.85Z"/>
                  <path class="cls-1" d="M1284.25,574.98h20.3c1.82,0,4.02-1.32,4.92-2.96l4.22-7.67c.9-1.63,.15-2.96-1.67-2.96h-20.3c-1.82,0-4.02,1.32-4.92,2.96l-4.22,7.67c-.9,1.63-.15,2.96,1.67,2.96Z"/>
                  <path class="cls-1" d="M1252.47,574.98h20.3c1.82,0,4.02-1.32,4.92-2.96l4.22-7.67c.9-1.63,.15-2.96-1.67-2.96h-20.3c-1.82,0-4.02,1.32-4.92,2.96l-4.22,7.67c-.9,1.63-.15,2.96,1.67,2.96Z"/>
                  <path class="cls-1" d="M1220.68,574.98h20.3c1.82,0,4.02-1.32,4.92-2.96l4.22-7.67c.9-1.63,.15-2.96-1.67-2.96h-20.3c-1.82,0-4.02,1.32-4.92,2.96l-4.22,7.67c-.9,1.63-.15,2.96,1.67,2.96Z"/>
                  <path class="cls-1" d="M1273.95,593.73h20.3c1.82,0,4.02-1.32,4.92-2.96l4.22-7.67c.9-1.63,.15-2.96-1.67-2.96h-20.3c-1.82,0-4.02,1.32-4.92,2.96l-4.22,7.67c-.9,1.63-.15,2.96,1.67,2.96Z"/>
                  <path class="cls-1" d="M1242.17,593.73h20.3c1.82,0,4.02-1.32,4.92-2.96l4.22-7.67c.9-1.63,.15-2.96-1.67-2.96h-20.3c-1.82,0-4.02,1.32-4.92,2.96l-4.22,7.67c-.9,1.63-.15,2.96,1.67,2.96Z"/>
                  <path class="cls-1" d="M1210.38,593.73h20.3c1.82,0,4.02-1.32,4.92-2.96l4.22-7.67c.9-1.63,.15-2.96-1.67-2.96h-20.3c-1.82,0-4.02,1.32-4.92,2.96l-4.22,7.67c-.9,1.63-.15,2.96,1.67,2.96Z"/>
                  <path class="cls-1" d="M1263.65,612.48h20.3c1.82,0,4.02-1.32,4.92-2.96l4.22-7.67c.9-1.63,.15-2.96-1.67-2.96h-20.3c-1.82,0-4.02,1.32-4.92,2.96l-4.22,7.67c-.9,1.63-.15,2.96,1.67,2.96Z"/>
                  <path class="cls-1" d="M1231.86,612.48h20.3c1.82,0,4.02-1.32,4.92-2.96l4.22-7.67c.9-1.63,.15-2.96-1.67-2.96h-20.3c-1.82,0-4.02,1.32-4.92,2.96l-4.22,7.67c-.9,1.63-.15,2.96,1.67,2.96Z"/>
                  <path class="cls-38" d="M1211.3,637.16h33.61c4.18,0,9.25-3.04,11.31-6.79h0c2.06-3.75,.34-6.79-3.84-6.79h-33.61c-4.18,0-9.25,3.04-11.31,6.79h0c-2.06,3.75-.34,6.79,3.84,6.79Z"/>
                  <path class="cls-1" d="M1200.08,612.48h20.3c1.82,0,4.02-1.32,4.92-2.96l4.22-7.67c.9-1.63,.15-2.96-1.67-2.96h-20.3c-1.82,0-4.02,1.32-4.92,2.96l-4.22,7.67c-.9,1.63-.15,2.96,1.67,2.96Z"/>
                  <path class="cls-12" d="M1259.06,507.14c-.97,.89-1.79,1.89-2.37,2.95h0c-12.61,22.95-2.08,41.55,23.51,41.55h35.61c1.59,0,3.3-.44,4.93-1.18-2.5,2.31-5.99,3.9-9.03,3.9h-74.31c-4.22,0-5.95-3.07-3.88-6.85l19.06-34.7c1.3-2.36,3.77-4.44,6.47-5.67Z"/>
                  <path class="cls-14" d="M1212.79,634.46h33.61c3.67,0,8.01-2.34,10.41-5.44-.14,.44-.34,.89-.59,1.35-2.06,3.75-7.12,6.79-11.31,6.79h-33.61c-4.18,0-5.9-3.04-3.84-6.79,.25-.46,.55-.91,.89-1.35-1.01,3.1,.77,5.44,4.43,5.44Z"/>
                  <path class="cls-35" d="M1209.59,610.74h11.75c1.82,0,4.02-1.32,4.92-2.96l-.95,1.74c-.9,1.63-3.1,2.96-4.92,2.96h-20.3c-1.82,0-2.57-1.32-1.67-2.96l4.22-7.67c.11-.21,.25-.41,.4-.6-2.3,5.34,.45,9.49,6.57,9.49Z"/>
                  <path class="cls-35" d="M1219.77,592.21h11.75c1.82,0,4.02-1.32,4.92-2.96l-.95,1.74c-.9,1.63-3.1,2.96-4.92,2.96h-20.3c-1.82,0-2.57-1.32-1.67-2.96l4.22-7.67c.11-.21,.25-.41,.4-.6-2.3,5.34,.45,9.49,6.57,9.49Z"/>
                  <path class="cls-35" d="M1230.18,573.26h11.75c1.82,0,4.02-1.32,4.92-2.96l-.95,1.74c-.9,1.63-3.1,2.96-4.92,2.96h-20.3c-1.82,0-2.57-1.32-1.67-2.96l4.22-7.67c.11-.21,.25-.41,.4-.6-2.3,5.34,.45,9.49,6.57,9.49Z"/>
                  <path class="cls-35" d="M1241.46,610.74h11.75c1.82,0,4.02-1.32,4.92-2.96l-.95,1.74c-.9,1.63-3.1,2.96-4.92,2.96h-20.3c-1.82,0-2.57-1.32-1.67-2.96l4.22-7.67c.11-.21,.25-.41,.4-.6-2.3,5.34,.45,9.49,6.57,9.49Z"/>
                  <path class="cls-35" d="M1251.64,592.21h11.75c1.82,0,4.02-1.32,4.92-2.96l-.95,1.74c-.9,1.63-3.1,2.96-4.92,2.96h-20.3c-1.82,0-2.57-1.32-1.67-2.96l4.22-7.67c.11-.21,.25-.41,.4-.6-2.3,5.34,.45,9.49,6.57,9.49Z"/>
                  <path class="cls-35" d="M1262.05,573.26h11.75c1.82,0,4.02-1.32,4.92-2.96l-.95,1.74c-.9,1.63-3.1,2.96-4.92,2.96h-20.3c-1.82,0-2.57-1.32-1.67-2.96l4.22-7.67c.11-.21,.25-.41,.4-.6-2.3,5.34,.45,9.49,6.57,9.49Z"/>
                  <path class="cls-35" d="M1273.06,610.74h11.75c1.82,0,4.02-1.32,4.92-2.96l-.95,1.74c-.9,1.63-3.1,2.96-4.92,2.96h-20.3c-1.82,0-2.57-1.32-1.67-2.96l4.22-7.67c.11-.21,.25-.41,.4-.6-2.3,5.34,.45,9.49,6.57,9.49Z"/>
                  <path class="cls-35" d="M1283.24,592.21h11.75c1.82,0,4.02-1.32,4.92-2.96l-.95,1.74c-.9,1.63-3.1,2.96-4.92,2.96h-20.3c-1.82,0-2.57-1.32-1.67-2.96l4.22-7.67c.11-.21,.25-.41,.4-.6-2.3,5.34,.45,9.49,6.57,9.49Z"/>
                  <path class="cls-35" d="M1293.65,573.26h11.75c1.82,0,4.02-1.32,4.92-2.96l-.95,1.74c-.9,1.63-3.1,2.96-4.92,2.96h-20.3c-1.82,0-2.57-1.32-1.67-2.96l4.22-7.67c.11-.21,.25-.41,.4-.6-2.3,5.34,.45,9.49,6.57,9.49Z"/>
                </g>
              </g>
            </g>
            <g>
              <line class="cls-31" x1="1335.24" y1="483.56" x2="1244.09" y2="483.56"/>
              <line class="cls-31" x1="1187.32" y1="580.1" x2="1170.3" y2="610.67"/>
              <line class="cls-31" x1="1231.06" y1="501.54" x2="1196.96" y2="562.79"/>
            </g>
            <line class="cls-31" x1="1346.66" y1="525.87" x2="1305.09" y2="605.18"/>
          </g>
        </g>
        <g>
          <g>
            <polyline class="cls-27" points="190.25 608.32 218.4 608.47 419.46 609.51"/>
            <path class="cls-27" d="M82.44,681.73c.09-.72,.21-1.43,.35-2.14,.04-.19,.07-.37,.11-.56,.13-.6,.27-1.2,.42-1.79,.03-.1,.05-.2,.08-.3,.19-.67,.39-1.34,.62-1.99,.06-.17,.12-.33,.18-.5,.19-.54,.39-1.06,.61-1.59,.06-.14,.11-.27,.17-.41,.26-.63,.55-1.24,.84-1.85,.07-.13,.13-.27,.2-.4,.25-.5,.51-.99,.78-1.48,.08-.14,.16-.29,.24-.43,.33-.58,.67-1.16,1.03-1.73,.05-.08,.11-.16,.16-.25,.32-.49,.64-.98,.98-1.46,.1-.14,.19-.28,.29-.41,.78-1.09,1.59-2.15,2.44-3.16,.1-.12,.2-.24,.3-.35,.39-.46,.79-.92,1.2-1.37,.03-.04,.06-.07,.09-.11,.45-.49,.9-.96,1.35-1.43,.09-.09,.18-.18,.26-.27,.4-.41,.81-.81,1.22-1.2,.06-.06,.11-.11,.17-.17,.47-.45,.94-.88,1.41-1.3,.06-.05,.12-.1,.18-.16,.43-.38,.85-.75,1.28-1.11,.06-.05,.12-.11,.19-.16,.48-.41,.96-.8,1.43-1.18h0c3.06-2.45,5.98-4.39,8.3-5.79,.41-.3,.82-.6,1.25-.89l63.89-30.04"/>
            <line class="cls-27" x1="81.72" y1="802.72" x2="81.72" y2="695.36"/>
          </g>
          <g>
            <g>
              <g>
                <g>
                  <polygon class="cls-24" points="198 696.1 433.09 770.53 433.09 625.52 201.41 619.8 198 696.1"/>
                  <polygon class="cls-24" points="433.09 625.52 323.89 683.86 329.01 832.79 433.09 770.53 433.09 625.52"/>
                  <path class="cls-13" d="M433.09,625.52l-84.68,42.86c-15.22,9.61-24.13,26.6-23.51,44.81l4.11,119.61,104.07-62.27v-145.01Z"/>
                  <path class="cls-24" d="M94.47,697.01c1.38-18.93,18.41-31.58,27.04-36.81,.41-.3,.82-.6,1.25-.89l78.66-39.51,230.26,5.69-107.78,58.37-112.35,44.08-105.17-15.69h0c-1.83-4.91-2.79-9.95-2.92-14.93l-8.99-.3Z"/>
                  <path class="cls-24" d="M93.93,826.99l235.08,5.8-4.11-119.54c-.56-16.38-14.02-29.67-30.4-30.02l-173.46-3.71c-14.99-.32-27.12,6.62-27.12,21.61v125.86Z"/>
                </g>
                <path class="cls-24" d="M95.43,696.68c1.38-18.93,18.41-31.58,27.04-36.81,.41-.3-.22-2.28,.21-2.57l79.7-37.48,230.26,5.69-107.78,58.02-112.35,44.08-105.17-15.69h0c-1.83-4.91-2.79-9.95-2.92-14.93l-8.99-.3Z"/>
                <path class="cls-24" d="M94.04,832.41l234.97,.38-3.14-119.87c-.56-16.38-14.02-29.67-30.4-30.02l-173.46-3.71c-14.99-.32-27.12,6.62-27.12,21.61l-.86,131.62Z"/>
                <path class="cls-24" d="M94.56,693.23c2.27-17.95,18.5-29.97,26.86-35.04,.41-.3,.82-.6,1.25-.89l308.92-31.82-107.78,56.36-12.46,4.89c7.85,5.44,13.12,14.38,13.47,24.5l4.11,119.54-235.08-5.8v-125.86c0-2.13,.25-4.08,.71-5.89Z"/>
                <polygon class="cls-20" points="324.87 712.57 328.93 830.78 94.04 832.41 93.85 706.86 324.87 712.57"/>
                <path class="cls-22" d="M94.56,693.23c1.64-12.98,10.58-22.85,18.56-29.24l233.24,5.76c-13.97,9.81-22.06,26.06-21.46,43.44l.49,14.26h-.01s-.51-14.88-.51-14.88l-231.02-5.7v-7.75c0-2.13,.25-4.08,.71-5.89Z"/>
                <path class="cls-15" d="M197.52,650.43l140.78,3.06c.51,.01,1.02-.1,1.48-.33l5.46-2.68c3-1.48,2.01-5.99-1.34-6.06l-140.78-3.06c-.51-.01-1.02,.1-1.48,.33l-5.46,2.68c-3,1.48-2.01,5.99,1.34,6.06Z"/>
              </g>
              <g>
                <path class="cls-42" d="M330.66,650.81l-124.88-3.08s-18.87-46.54,1.8-64.15-3.83-35.13-4.49-66.58c-.46-22.2,16.17-42.65,39.53-51.14l121.28,2.99s-25.18,19.12-25.16,40.92c.04,27.37,21.77,66.73,3.8,80.64-17.97,13.91-39.74,24.97-11.89,60.4Z"/>
                <g>
                  <line class="cls-28" x1="319.95" y1="491.96" x2="225.8" y2="491.96"/>
                  <line class="cls-28" x1="306.5" y1="505.94" x2="212.35" y2="505.94"/>
                  <line class="cls-28" x1="319.41" y1="524.24" x2="225.26" y2="524.24"/>
                  <line class="cls-28" x1="321.57" y1="562.97" x2="227.42" y2="562.97"/>
                  <line class="cls-28" x1="301.66" y1="610.32" x2="207.51" y2="610.32"/>
                  <line class="cls-28" x1="301.66" y1="623.77" x2="221.5" y2="623.77"/>
                  <line class="cls-28" x1="301.66" y1="637.75" x2="234.41" y2="637.75"/>
                  <line class="cls-28" x1="311.88" y1="576.42" x2="227.42" y2="576.42"/>
                </g>
                <path class="cls-8" d="M207.58,583.57s-5.37,29.4,42.41,39.42c26.55,5.57,52.62,9.47,70.56,11.84,2.13,4.72,5.41,10,10.11,15.98l-124.88-3.08s-18.87-46.54,1.8-64.15Z"/>
              </g>
            </g>
            <g>
              <path class="cls-13" d="M305.3,710.95v88.26c0,5.04-4.09,9.13-9.13,9.13h-46.67c-5.04,0-9.13-4.09-9.13-9.13v-89.27s64.92,1.01,64.92,1.01Z"/>
              <path class="cls-13" d="M240.38,709.93l15.3,88.2h49.63v.39c0,5.42-4.39,9.81-9.81,9.81h-45.31c-5.42,0-9.81-4.39-9.81-9.81v-88.59s0,0,0,0Z"/>
            </g>
            <g>
              <rect class="cls-13" x="115.27" y="706.61" width="17.06" height="97.66" rx="8.53" ry="8.53" transform="translate(247.59 1510.87) rotate(180)"/>
              <path class="cls-13" d="M123.8,706.6c.64,0,1.27,.08,1.87,.21-3.81,.85-6.66,4.25-6.66,8.32v80.6c0,4.07,2.85,7.47,6.66,8.32-.6,.13-1.23,.21-1.87,.21-4.71,0-8.53-3.82-8.53-8.53v-80.6c0-4.71,3.82-8.53,8.53-8.53Z"/>
            </g>
            <g>
              <rect class="cls-32" x="93.75" y="822.03" width="235" height="10.81" transform="translate(422.5 1654.88) rotate(-180)"/>
              <rect class="cls-32" x="93.75" y="703.34" width="232.17" height="5.41" transform="translate(419.66 1412.08) rotate(-180)"/>
            </g>
          </g>
        </g>
      </g>
    </g>
  </g>
</svg>